<svg width="22" height="22" viewBox="0 0 22 22" fill="none" xmlns="http://www.w3.org/2000/svg">
<path d="M1.02808 20.2291C0.751934 20.2291 0.528076 20.453 0.528076 20.7291C0.528076 21.0053 0.751934 21.2291 1.02808 21.2291V20.2291ZM21.0281 21.2291C21.3042 21.2291 21.5281 21.0053 21.5281 20.7291C21.5281 20.453 21.3042 20.2291 21.0281 20.2291V21.2291ZM2.02808 8.69911L2.52808 8.70119V8.69911H2.02808ZM2.79808 7.12917L2.4909 6.73463L2.48773 6.73714L2.79808 7.12917ZM9.79808 1.67916L9.49111 1.28448L9.49091 1.28463L9.79808 1.67916ZM12.2581 1.67916L12.5649 1.28435L12.5624 1.28244L12.2581 1.67916ZM19.2581 7.11916L18.9513 7.51396L18.9517 7.51427L19.2581 7.11916ZM7.52808 20.7291H7.02808C7.02808 21.0053 7.25193 21.2291 7.52808 21.2291V20.7291ZM14.5281 20.7291V21.2291C14.8042 21.2291 15.0281 21.0053 15.0281 20.7291H14.5281ZM1.02808 21.2291H21.0281V20.2291H1.02808V21.2291ZM2.47807 20.7312L2.52807 8.70119L1.52808 8.69704L1.47808 20.7271L2.47807 20.7312ZM2.52808 8.69911C2.52808 8.24741 2.74384 7.80983 3.10843 7.52119L2.48773 6.73714C1.89232 7.20851 1.52808 7.93082 1.52808 8.69911H2.52808ZM3.10524 7.52369L10.1052 2.07368L9.49091 1.28463L2.49091 6.73464L3.10524 7.52369ZM10.105 2.07383C10.6433 1.65522 11.402 1.65262 11.9537 2.07587L12.5624 1.28244C11.6541 0.585686 10.3929 0.583088 9.49111 1.28448L10.105 2.07383ZM11.9513 2.07395L18.9513 7.51396L19.5649 6.72436L12.5649 1.28436L11.9513 2.07395ZM18.9517 7.51427C19.3177 7.79816 19.5281 8.23135 19.5281 8.69911H20.5281C20.5281 7.92688 20.1784 7.20016 19.5645 6.72405L18.9517 7.51427ZM19.5281 8.69911V20.7291H20.5281V8.69911H19.5281ZM12.4281 10.2291H9.62808V11.2291H12.4281V10.2291ZM9.62808 10.2291C8.83973 10.2291 8.17744 10.6846 7.73271 11.3199C7.2871 11.9565 7.02808 12.8095 7.02808 13.7291H8.02808C8.02808 12.9887 8.23805 12.3418 8.55194 11.8934C8.86671 11.4437 9.25442 11.2291 9.62808 11.2291V10.2291ZM7.02808 13.7291V20.7291H8.02808V13.7291H7.02808ZM7.52808 21.2291H14.5281V20.2291H7.52808V21.2291ZM15.0281 20.7291V13.7291H14.0281V20.7291H15.0281ZM15.0281 13.7291C15.0281 12.8095 14.7691 11.9565 14.3234 11.3199C13.8787 10.6846 13.2164 10.2291 12.4281 10.2291V11.2291C12.8017 11.2291 13.1894 11.4437 13.5042 11.8934C13.8181 12.3418 14.0281 12.9887 14.0281 13.7291H15.0281Z" fill="#484848"/>
</svg>
